<?xml version="1.0" encoding="UTF-8" standalone="no"?>
<!-- Created with Inkscape (http://www.inkscape.org/) -->

<svg
   version="1.1"
   id="svg62"
   width="512"
   height="512"
   viewBox="0 0 512 512"
   sodipodi:docname="kimotor.svg"
   inkscape:version="1.2.1 (9c6d41e, 2022-07-14)"
   inkscape:export-filename="kimotor_24x24.png"
   inkscape:export-xdpi="4.5"
   inkscape:export-ydpi="4.5"
   xmlns:inkscape="http://www.inkscape.org/namespaces/inkscape"
   xmlns:sodipodi="http://sodipodi.sourceforge.net/DTD/sodipodi-0.dtd"
   xmlns="http://www.w3.org/2000/svg"
   xmlns:svg="http://www.w3.org/2000/svg">
  <defs
     id="defs66">
    <inkscape:path-effect
       effect="fillet_chamfer"
       id="path-effect1022"
       is_visible="true"
       lpeversion="1"
       nodesatellites_param="F,1,0,1,0,0.099216258,0,1 @ F,1,0,1,0,0.20973063,0,1 @ F,1,0,1,0,0.099046655,0,1 @ F,1,0,1,0,0.064734018,0,1 | F,1,0,1,0,0.064857863,0,1 @ F,1,0,1,0,0.099231053,0,1 @ F,1,0,1,0,0.20970772,0,1 @ F,1,0,1,0,0.099544187,0,1 | F,1,0,1,0,0.099232897,0,1 @ F,1,0,1,0,0.42140259,0,1 @ F,1,0,1,0,0.42137108,0,1 @ F,1,0,1,0,0.099373855,0,1 @ F,1,0,1,0,0.13101904,0,1 @ F,1,0,1,0,0.1309474,0,1 | F,1,0,1,0,0.13101904,0,1 @ F,1,0,1,0,0.13101904,0,1 @ F,1,0,1,0,0.099373855,0,1 @ F,1,0,1,0,0.42137108,0,1 @ F,1,0,1,0,0.42137108,0,1 @ F,1,0,1,0,0.099373855,0,1 | F,1,0,1,0,0.099231053,0,1 @ F,1,0,1,0,0.064857863,0,1 @ F,1,0,1,0,0.099544187,0,1 @ F,1,0,1,0,0.20970772,0,1 | F,1,0,1,0,0.20970772,0,1 @ F,1,0,1,0,0.099544187,0,1 @ F,1,0,1,0,0.064857863,0,1 @ F,1,0,1,0,0.099231053,0,1"
       unit="px"
       method="auto"
       mode="F"
       radius="2"
       chamfer_steps="1"
       flexible="false"
       use_knot_distance="false"
       apply_no_radius="true"
       apply_with_radius="false"
       only_selected="false"
       hide_knots="false" />
  </defs>
  <sodipodi:namedview
     id="namedview64"
     pagecolor="#ffffff"
     bordercolor="#666666"
     borderopacity="1.0"
     inkscape:showpageshadow="2"
     inkscape:pageopacity="0.0"
     inkscape:pagecheckerboard="0"
     inkscape:deskcolor="#d1d1d1"
     showgrid="false"
     inkscape:zoom="2.8367135"
     inkscape:cx="360.27607"
     inkscape:cy="299.99504"
     inkscape:window-width="3840"
     inkscape:window-height="2105"
     inkscape:window-x="0"
     inkscape:window-y="31"
     inkscape:window-maximized="1"
     inkscape:current-layer="g68" />
  <g
     inkscape:groupmode="layer"
     inkscape:label="Image"
     id="g68">
    <circle
       style="fill:#1a1a1a;stroke-width:23.4542;stroke-linejoin:round;paint-order:fill markers stroke"
       id="path409"
       cx="256.00253"
       cy="255.85266"
       r="230"
       inkscape:export-filename="kimotor_24x24.png"
       inkscape:export-xdpi="5"
       inkscape:export-ydpi="5" />
    <circle
       style="fill:#ffffff;stroke-width:18.3553;stroke-linejoin:round;paint-order:fill markers stroke"
       id="path409-3"
       cx="256"
       cy="256"
       r="180" />
    <path
       id="path625"
       style="fill:#aa0000;stroke-width:18.7194;stroke-linejoin:round;paint-order:fill markers stroke"
       d="m 268.5,110.52344 v 72.71094 c 0,4.97056 3.98352,9.74572 8.66714,11.39822 7.79892,2.75166 15.00278,6.96747 21.22158,12.4192 3.73468,3.27403 9.82552,4.36714 14.1302,1.88194 l 63.10474,-36.43194 c 4.30468,-2.4852 5.52673,-7.83564 2.47267,-11.75639 -24.71616,-31.73024 -60.82507,-52.61875 -100.65284,-58.22633 -4.92133,-0.6929 -8.94349,3.0338 -8.94349,8.00436 z m -33.94352,-7.70971 c -39.74085,5.5941 -75.78304,26.40308 -100.4981,58.02262 -3.06061,3.91564 -1.84415,9.2623 2.46052,11.74753 l 62.95829,36.34786 c 4.30467,2.48523 10.39541,1.39206 14.13,-1.88207 6.2198,-5.45293 13.42507,-9.6695 21.22557,-12.42135 4.68369,-1.6523 8.66724,-6.42729 8.66724,-11.39785 v -72.41211 c 0,-4.97056 -4.02217,-8.69738 -8.94352,-8.00463 z m 153.43444,91.41672 -62.95645,36.34769 c -4.30464,2.48527 -6.37528,8.29616 -5.37106,13.16017 0.22599,1.09461 0.42372,2.19487 0.59297,3.29967 0.7521,4.90932 0.75258,13.01472 0.001,17.92412 -0.1692,1.10536 -0.3669,2.20616 -0.5929,3.30131 -1.00376,4.86411 1.06724,10.67512 5.37189,13.16039 l 62.84509,36.28326 c 4.30465,2.48527 9.5676,0.87716 11.45894,-3.71875 6.42196,-15.60522 10.25264,-32.15536 11.34039,-48.99524 0.32036,-4.95952 0.328,-13.02661 0.017,-17.98673 -1.05663,-16.85438 -4.86078,-33.42371 -11.26165,-49.0511 -1.88373,-4.59904 -7.14069,-6.21006 -11.44533,-3.72479 z m -275.33139,3.78124 c -6.42196,15.60522 -10.25264,32.15536 -11.34039,48.99524 -0.32036,4.95952 -0.32036,13.02662 0,17.98614 1.08775,16.83988 4.91843,33.39002 11.34039,48.99524 1.89134,4.59591 7.15429,6.20402 11.45894,3.71875 l 62.84509,-36.28326 c 4.30465,-2.48527 6.37565,-8.29628 5.37189,-13.16039 -0.226,-1.09515 -0.4237,-2.19595 -0.5929,-3.30131 -0.75151,-4.9094 -0.75151,-13.0148 0,-17.9242 0.1692,-1.10536 0.3669,-2.20616 0.5929,-3.30131 1.00376,-4.86411 -1.06724,-10.67512 -5.37189,-13.16039 l -62.84509,-36.28326 c -4.30465,-2.48527 -9.5676,-0.87716 -11.45894,3.71875 z m 86.81766,105.05657 -62.95829,36.34786 c -4.30467,2.48523 -5.52113,7.83189 -2.46052,11.74753 24.71506,31.61954 60.75725,52.42852 100.4981,58.02262 4.92135,0.69275 8.94352,-3.03407 8.94352,-8.00463 v -72.41211 c 0,-4.97056 -3.98355,-9.74555 -8.66724,-11.39785 -7.8005,-2.75185 -15.00577,-6.96842 -21.22557,-12.42135 -3.73459,-3.27413 -9.82533,-4.3673 -14.13,-1.88207 z m 98.91562,1.88207 c -6.2198,5.45293 -13.42507,9.6695 -21.22557,12.42135 -4.68369,1.6523 -8.66724,6.42729 -8.66724,11.39785 v 72.41211 c 0,4.97056 4.02217,8.69738 8.94352,8.00463 39.74085,-5.5941 75.78304,-26.40308 100.4981,-58.02262 3.06061,-3.91564 1.84415,-9.2623 -2.46052,-11.74753 l -62.95829,-36.34786 c -4.30467,-2.48523 -10.39541,-1.39206 -14.13,1.88207 z"
       inkscape:path-effect="#path-effect1022"
       inkscape:original-d="M 268.5 101.52344 L 268.5 192.23438 A 65 65 0 0 1 304.72461 213.43359 L 383.41797 168.00195 A 155 155 0 0 0 268.5 101.52344 z M 243.5 101.81836 A 155 155 0 0 0 128.72461 168.08398 L 207.27148 213.43164 A 65 65 0 0 1 243.5 192.23047 L 243.5 101.81836 z M 395.78516 189.73047 L 317.24023 235.07812 A 65 65 0 0 1 321 256 A 65 65 0 0 1 317.24219 276.92383 L 395.67578 322.20703 A 155 155 0 0 0 411 256 A 155 155 0 0 0 395.78516 189.73047 z M 116.32422 189.79297 A 155 155 0 0 0 101 256 A 155 155 0 0 0 116.32422 322.20703 L 194.75781 276.92383 A 65 65 0 0 1 191 256 A 65 65 0 0 1 194.75781 235.07617 L 116.32422 189.79297 z M 207.27148 298.56836 L 128.72461 343.91602 A 155 155 0 0 0 243.5 410.18164 L 243.5 319.76953 A 65 65 0 0 1 207.27148 298.56836 z M 304.72852 298.56836 A 65 65 0 0 1 268.5 319.76953 L 268.5 410.18164 A 155 155 0 0 0 383.27539 343.91602 L 304.72852 298.56836 z " />
    <circle
       style="fill:#1a1a1a;stroke-width:4.07898;stroke-linejoin:round;paint-order:fill markers stroke"
       id="path409-6"
       cx="256"
       cy="256"
       r="40" />
  </g>
</svg>
