M48
; DRILL file {KiCad 6.0.5} date Tue 15 Nov 2022 07:58:49 PM CET
; FORMAT={-:-/ absolute / metric / decimal}
; #@! TF.CreationDate,2022-11-15T19:58:49+01:00
; #@! TF.GenerationSoftware,Kicad,Pcbnew,6.0.5
; #@! TF.FileFunction,MixedPlating,1,2
FMAT,2
METRIC
; #@! TA.AperFunction,Plated,PTH,ViaDrill
T1C0.200
; #@! TA.AperFunction,Plated,PTH,ViaDrill
T2C0.400
; #@! TA.AperFunction,Plated,PTH,ComponentDrill
T3C1.000
; #@! TA.AperFunction,Plated,PTH,ComponentDrill
T4C3.200
%
G90
G05
T1
X-31.0Y0.0
X-15.5Y-26.847
X-15.5Y26.847
X-10.392Y6.0
X-10.392Y-6.0
X-6.5Y-11.258
X0.0Y12.0
X7.0Y-12.124
X15.0Y0.0
X15.5Y-26.847
X15.5Y26.847
X31.0Y-0.0
T2
X-48.315Y4.227
X-48.315Y-4.227
X-46.847Y12.553
X-46.847Y-12.553
X-46.821Y4.096
X-46.821Y-4.096
X-45.399Y12.164
X-45.399Y-12.164
X-43.956Y20.497
X-43.956Y-20.497
X-42.596Y19.863
X-42.596Y-19.863
X-39.729Y27.818
X-39.729Y-27.818
X-38.5Y26.958
X-38.5Y-26.958
X-34.295Y34.295
X-34.295Y-34.295
X-33.234Y33.234
X-33.234Y-33.234
X-27.818Y39.729
X-27.818Y-39.729
X-26.958Y38.5
X-26.958Y-38.5
X-20.497Y43.956
X-20.497Y-43.956
X-19.863Y42.596
X-19.863Y-42.596
X-12.553Y46.847
X-12.553Y-46.847
X-12.164Y45.399
X-12.164Y-45.399
X-4.227Y48.315
X-4.227Y-48.315
X-4.096Y46.821
X-4.096Y-46.821
X4.096Y46.821
X4.096Y-46.821
X4.227Y48.315
X4.227Y-48.315
X12.164Y45.399
X12.164Y-45.399
X12.553Y46.847
X12.553Y-46.847
X19.863Y42.596
X19.863Y-42.596
X20.497Y43.956
X20.497Y-43.956
X26.958Y38.5
X26.958Y-38.5
X27.818Y39.729
X27.818Y-39.729
X33.234Y33.234
X33.234Y-33.234
X34.295Y34.295
X34.295Y-34.295
X38.5Y26.958
X38.5Y-26.958
X39.729Y27.818
X39.729Y-27.818
X42.596Y19.863
X42.596Y-19.863
X43.956Y20.497
X43.956Y-20.497
X45.399Y12.164
X45.399Y-12.164
X46.821Y4.096
X46.821Y-4.096
X46.847Y12.553
X46.847Y-12.553
X48.315Y4.227
X48.315Y-4.227
T3
X-3.791Y-43.334
X0.0Y-43.5
X3.791Y-43.334
T4
X-47.5Y0.0
X-23.75Y41.136
X-23.75Y-41.136
X23.75Y41.136
X23.75Y-41.136
X47.5Y0.0
T0
M30
